solid ascii
  facet normal 0.000000e+00 -0.000000e+00 1.000000e+00
    outer loop
      vertex   -7.452280e+01 1.227063e+02 2.000000e+00
      vertex   -2.080195e+01 1.227063e+02 2.000000e+00
      vertex   -7.452280e+01 1.651263e+02 2.000000e+00
    endloop
  endfacet
  facet normal 0.000000e+00 -0.000000e+00 1.000000e+00
    outer loop
      vertex   -1.282437e+02 1.651263e+02 2.000000e+00
      vertex   -7.452280e+01 1.651263e+02 2.000000e+00
      vertex   -1.282437e+02 2.075463e+02 2.000000e+00
    endloop
  endfacet
  facet normal -0.000000e+00 0.000000e+00 1.000000e+00
    outer loop
      vertex   -1.819645e+02 2.075463e+02 2.000000e+00
      vertex   -1.282437e+02 1.651263e+02 2.000000e+00
      vertex   -1.282437e+02 2.075463e+02 2.000000e+00
    endloop
  endfacet
  facet normal -0.000000e+00 0.000000e+00 1.000000e+00
    outer loop
      vertex   -1.819645e+02 2.075463e+02 2.000000e+00
      vertex   -1.819645e+02 1.651263e+02 2.000000e+00
      vertex   -1.282437e+02 1.651263e+02 2.000000e+00
    endloop
  endfacet
  facet normal 0.000000e+00 0.000000e+00 1.000000e+00
    outer loop
      vertex   -1.282437e+02 1.651263e+02 2.000000e+00
      vertex   -1.819645e+02 1.651263e+02 2.000000e+00
      vertex   -1.282437e+02 1.227063e+02 2.000000e+00
    endloop
  endfacet
  facet normal 0.000000e+00 0.000000e+00 1.000000e+00
    outer loop
      vertex   -7.452280e+01 1.227063e+02 2.000000e+00
      vertex   -1.282437e+02 1.651263e+02 2.000000e+00
      vertex   -1.282437e+02 1.227063e+02 2.000000e+00
    endloop
  endfacet
  facet normal 0.000000e+00 0.000000e+00 1.000000e+00
    outer loop
      vertex   -7.452280e+01 1.227063e+02 2.000000e+00
      vertex   -7.452280e+01 1.651263e+02 2.000000e+00
      vertex   -1.282437e+02 1.651263e+02 2.000000e+00
    endloop
  endfacet
  facet normal 0.000000e+00 0.000000e+00 1.000000e+00
    outer loop
      vertex   -2.080195e+01 2.075463e+02 2.000000e+00
      vertex   -7.452280e+01 2.075463e+02 2.000000e+00
      vertex   -2.080195e+01 1.651263e+02 2.000000e+00
    endloop
  endfacet
  facet normal 0.000000e+00 0.000000e+00 1.000000e+00
    outer loop
      vertex   -2.080195e+01 1.651263e+02 2.000000e+00
      vertex   -7.452280e+01 2.075463e+02 2.000000e+00
      vertex   -7.452280e+01 1.651263e+02 2.000000e+00
    endloop
  endfacet
  facet normal 0.000000e+00 -0.000000e+00 1.000000e+00
    outer loop
      vertex   -2.080195e+01 1.227063e+02 2.000000e+00
      vertex   -2.080195e+01 1.651263e+02 2.000000e+00
      vertex   -7.452280e+01 1.651263e+02 2.000000e+00
    endloop
  endfacet
  facet normal 0.000000e+00 0.000000e+00 1.000000e+00
    outer loop
      vertex   -7.452280e+01 2.075463e+02 2.000000e+00
      vertex   -1.282437e+02 2.075463e+02 2.000000e+00
      vertex   -7.452280e+01 1.651263e+02 2.000000e+00
    endloop
  endfacet
  facet normal -0.000000e+00 0.000000e+00 1.000000e+00
    outer loop
      vertex   -1.819645e+02 1.651263e+02 2.000000e+00
      vertex   -1.819645e+02 1.227063e+02 2.000000e+00
      vertex   -1.282437e+02 1.227063e+02 2.000000e+00
    endloop
  endfacet
  facet normal 0.000000e+00 -0.000000e+00 -1.000000e+00
    outer loop
      vertex   -7.452280e+01 2.075463e+02 0.000000e+00
      vertex   -2.080195e+01 2.075463e+02 0.000000e+00
      vertex   -7.452280e+01 1.651263e+02 0.000000e+00
    endloop
  endfacet
  facet normal 0.000000e+00 -0.000000e+00 -1.000000e+00
    outer loop
      vertex   -1.282437e+02 1.651263e+02 0.000000e+00
      vertex   -7.452280e+01 1.651263e+02 0.000000e+00
      vertex   -1.282437e+02 1.227063e+02 0.000000e+00
    endloop
  endfacet
  facet normal 0.000000e+00 0.000000e+00 -1.000000e+00
    outer loop
      vertex   -1.819645e+02 1.227063e+02 0.000000e+00
      vertex   -1.282437e+02 1.651263e+02 0.000000e+00
      vertex   -1.282437e+02 1.227063e+02 0.000000e+00
    endloop
  endfacet
  facet normal 0.000000e+00 0.000000e+00 -1.000000e+00
    outer loop
      vertex   -1.819645e+02 1.227063e+02 0.000000e+00
      vertex   -1.819645e+02 1.651263e+02 0.000000e+00
      vertex   -1.282437e+02 1.651263e+02 0.000000e+00
    endloop
  endfacet
  facet normal 0.000000e+00 0.000000e+00 -1.000000e+00
    outer loop
      vertex   -1.282437e+02 1.651263e+02 0.000000e+00
      vertex   -1.819645e+02 1.651263e+02 0.000000e+00
      vertex   -1.282437e+02 2.075463e+02 0.000000e+00
    endloop
  endfacet
  facet normal -0.000000e+00 0.000000e+00 -1.000000e+00
    outer loop
      vertex   -7.452280e+01 2.075463e+02 0.000000e+00
      vertex   -1.282437e+02 1.651263e+02 0.000000e+00
      vertex   -1.282437e+02 2.075463e+02 0.000000e+00
    endloop
  endfacet
  facet normal -0.000000e+00 -0.000000e+00 -1.000000e+00
    outer loop
      vertex   -7.452280e+01 2.075463e+02 0.000000e+00
      vertex   -7.452280e+01 1.651263e+02 0.000000e+00
      vertex   -1.282437e+02 1.651263e+02 0.000000e+00
    endloop
  endfacet
  facet normal 0.000000e+00 0.000000e+00 -1.000000e+00
    outer loop
      vertex   -2.080195e+01 1.227063e+02 0.000000e+00
      vertex   -7.452280e+01 1.227063e+02 0.000000e+00
      vertex   -2.080195e+01 1.651263e+02 0.000000e+00
    endloop
  endfacet
  facet normal -0.000000e+00 0.000000e+00 -1.000000e+00
    outer loop
      vertex   -2.080195e+01 1.651263e+02 0.000000e+00
      vertex   -7.452280e+01 1.227063e+02 0.000000e+00
      vertex   -7.452280e+01 1.651263e+02 0.000000e+00
    endloop
  endfacet
  facet normal -0.000000e+00 -0.000000e+00 -1.000000e+00
    outer loop
      vertex   -2.080195e+01 2.075463e+02 0.000000e+00
      vertex   -2.080195e+01 1.651263e+02 0.000000e+00
      vertex   -7.452280e+01 1.651263e+02 0.000000e+00
    endloop
  endfacet
  facet normal 0.000000e+00 0.000000e+00 -1.000000e+00
    outer loop
      vertex   -7.452280e+01 1.227063e+02 0.000000e+00
      vertex   -1.282437e+02 1.227063e+02 0.000000e+00
      vertex   -7.452280e+01 1.651263e+02 0.000000e+00
    endloop
  endfacet
  facet normal 0.000000e+00 0.000000e+00 -1.000000e+00
    outer loop
      vertex   -1.819645e+02 1.651263e+02 0.000000e+00
      vertex   -1.819645e+02 2.075463e+02 0.000000e+00
      vertex   -1.282437e+02 2.075463e+02 0.000000e+00
    endloop
  endfacet
  facet normal 0.000000e+00 -1.000000e+00 0.000000e+00
    outer loop
      vertex   -1.819645e+02 1.227063e+02 0.000000e+00
      vertex   -1.282437e+02 1.227063e+02 0.000000e+00
      vertex   -1.819645e+02 1.227063e+02 2.000000e+00
    endloop
  endfacet
  facet normal 0.000000e+00 -1.000000e+00 0.000000e+00
    outer loop
      vertex   -1.819645e+02 1.227063e+02 2.000000e+00
      vertex   -1.282437e+02 1.227063e+02 0.000000e+00
      vertex   -1.282437e+02 1.227063e+02 2.000000e+00
    endloop
  endfacet
  facet normal 0.000000e+00 -1.000000e+00 0.000000e+00
    outer loop
      vertex   -1.282437e+02 1.227063e+02 2.000000e+00
      vertex   -1.282437e+02 1.227063e+02 0.000000e+00
      vertex   -7.452280e+01 1.227063e+02 0.000000e+00
    endloop
  endfacet
  facet normal 0.000000e+00 -1.000000e+00 0.000000e+00
    outer loop
      vertex   -7.452280e+01 1.227063e+02 2.000000e+00
      vertex   -7.452280e+01 1.227063e+02 0.000000e+00
      vertex   -2.080195e+01 1.227063e+02 0.000000e+00
    endloop
  endfacet
  facet normal -0.000000e+00 -1.000000e+00 -0.000000e+00
    outer loop
      vertex   -2.080195e+01 1.227063e+02 2.000000e+00
      vertex   -7.452280e+01 1.227063e+02 2.000000e+00
      vertex   -2.080195e+01 1.227063e+02 0.000000e+00
    endloop
  endfacet
  facet normal 0.000000e+00 -1.000000e+00 0.000000e+00
    outer loop
      vertex   -1.282437e+02 1.227063e+02 2.000000e+00
      vertex   -7.452280e+01 1.227063e+02 0.000000e+00
      vertex   -7.452280e+01 1.227063e+02 2.000000e+00
    endloop
  endfacet
  facet normal -1.000000e+00 -0.000000e+00 -0.000000e+00
    outer loop
      vertex   -1.819645e+02 2.075463e+02 2.000000e+00
      vertex   -1.819645e+02 2.075463e+02 0.000000e+00
      vertex   -1.819645e+02 1.651263e+02 2.000000e+00
    endloop
  endfacet
  facet normal -1.000000e+00 -0.000000e+00 -0.000000e+00
    outer loop
      vertex   -1.819645e+02 1.651263e+02 2.000000e+00
      vertex   -1.819645e+02 2.075463e+02 0.000000e+00
      vertex   -1.819645e+02 1.651263e+02 0.000000e+00
    endloop
  endfacet
  facet normal -1.000000e+00 -0.000000e+00 -0.000000e+00
    outer loop
      vertex   -1.819645e+02 1.227063e+02 2.000000e+00
      vertex   -1.819645e+02 1.651263e+02 0.000000e+00
      vertex   -1.819645e+02 1.227063e+02 0.000000e+00
    endloop
  endfacet
  facet normal -1.000000e+00 0.000000e+00 0.000000e+00
    outer loop
      vertex   -1.819645e+02 1.227063e+02 2.000000e+00
      vertex   -1.819645e+02 1.651263e+02 2.000000e+00
      vertex   -1.819645e+02 1.651263e+02 0.000000e+00
    endloop
  endfacet
  facet normal 0.000000e+00 1.000000e+00 -0.000000e+00
    outer loop
      vertex   -2.080195e+01 2.075463e+02 0.000000e+00
      vertex   -7.452280e+01 2.075463e+02 0.000000e+00
      vertex   -2.080195e+01 2.075463e+02 2.000000e+00
    endloop
  endfacet
  facet normal 0.000000e+00 1.000000e+00 -0.000000e+00
    outer loop
      vertex   -2.080195e+01 2.075463e+02 2.000000e+00
      vertex   -7.452280e+01 2.075463e+02 0.000000e+00
      vertex   -7.452280e+01 2.075463e+02 2.000000e+00
    endloop
  endfacet
  facet normal 0.000000e+00 1.000000e+00 0.000000e+00
    outer loop
      vertex   -7.452280e+01 2.075463e+02 2.000000e+00
      vertex   -7.452280e+01 2.075463e+02 0.000000e+00
      vertex   -1.282437e+02 2.075463e+02 0.000000e+00
    endloop
  endfacet
  facet normal 0.000000e+00 1.000000e+00 0.000000e+00
    outer loop
      vertex   -1.282437e+02 2.075463e+02 2.000000e+00
      vertex   -1.282437e+02 2.075463e+02 0.000000e+00
      vertex   -1.819645e+02 2.075463e+02 0.000000e+00
    endloop
  endfacet
  facet normal -0.000000e+00 1.000000e+00 0.000000e+00
    outer loop
      vertex   -1.819645e+02 2.075463e+02 2.000000e+00
      vertex   -1.282437e+02 2.075463e+02 2.000000e+00
      vertex   -1.819645e+02 2.075463e+02 0.000000e+00
    endloop
  endfacet
  facet normal 0.000000e+00 1.000000e+00 -0.000000e+00
    outer loop
      vertex   -7.452280e+01 2.075463e+02 2.000000e+00
      vertex   -1.282437e+02 2.075463e+02 0.000000e+00
      vertex   -1.282437e+02 2.075463e+02 2.000000e+00
    endloop
  endfacet
  facet normal 1.000000e+00 -0.000000e+00 0.000000e+00
    outer loop
      vertex   -2.080195e+01 1.227063e+02 2.000000e+00
      vertex   -2.080195e+01 1.227063e+02 0.000000e+00
      vertex   -2.080195e+01 1.651263e+02 2.000000e+00
    endloop
  endfacet
  facet normal 1.000000e+00 -0.000000e+00 0.000000e+00
    outer loop
      vertex   -2.080195e+01 1.651263e+02 2.000000e+00
      vertex   -2.080195e+01 1.227063e+02 0.000000e+00
      vertex   -2.080195e+01 1.651263e+02 0.000000e+00
    endloop
  endfacet
  facet normal 1.000000e+00 -0.000000e+00 0.000000e+00
    outer loop
      vertex   -2.080195e+01 2.075463e+02 2.000000e+00
      vertex   -2.080195e+01 1.651263e+02 0.000000e+00
      vertex   -2.080195e+01 2.075463e+02 0.000000e+00
    endloop
  endfacet
  facet normal 1.000000e+00 0.000000e+00 0.000000e+00
    outer loop
      vertex   -2.080195e+01 2.075463e+02 2.000000e+00
      vertex   -2.080195e+01 1.651263e+02 2.000000e+00
      vertex   -2.080195e+01 1.651263e+02 0.000000e+00
    endloop
  endfacet
endsolid
